<svg width="1087" height="1419" viewBox="0 0 1087 1419" fill="none" xmlns="http://www.w3.org/2000/svg">
<g clip-path="url(#clip0_115_137)">
<rect width="1087" height="1419" fill="white"/>
<path d="M549.544 18.4951L1021.31 236.67L1024.38 238.086L1026.46 240.742C1043.28 262.208 1055.34 287.52 1059.82 315.004H1059.82C1110.39 625.218 1007.55 941.743 782.106 1163.69L553.32 1388.94L543.498 1398.61L533.676 1388.94L304.889 1163.69C81.5334 943.802 -21.4814 631.066 25.8115 323.616C31.0011 289.881 49.2644 260.136 74.8564 238.653L76.2324 237.498L77.8564 236.729L537.666 18.5537L543.591 15.7422L549.544 18.4951Z" fill="#171717" stroke="#666666" stroke-width="28"/>
<path d="M545 25L83.8576 249.376C60.5851 268.912 44.269 295.713 39.6491 325.745C-6.96072 628.754 94.5641 936.984 314.71 1153.72L542.5 1377.98M545 25L1015.44 249.376C1030.98 269.217 1041.95 292.375 1046 317.254C1095.84 622.988 994.491 934.955 772.284 1153.72L542.5 1377.98" stroke="#B2ADAD" stroke-width="5.63836"/>
<path d="M546 192.5C624.701 192.5 688.5 256.299 688.5 335C688.5 413.701 624.701 477.5 546 477.5C467.299 477.5 403.5 413.701 403.5 335C403.5 256.299 467.299 192.5 546 192.5Z" fill="#FE0E0E" stroke="#CD1111" stroke-width="15"/>
<path d="M545.998 533.5C624.653 533.5 688.5 597.252 688.5 676C688.5 754.744 624.653 818.5 545.998 818.5C467.347 818.5 403.501 754.745 403.5 676L403.512 674.157C404.491 596.874 466.965 534.49 544.157 533.512L545.998 533.5Z" fill="#FFCD03" stroke="#B49417" stroke-width="15"/>
<path d="M546 874.5C624.701 874.5 688.5 938.299 688.5 1017C688.5 1095.7 624.701 1159.5 546 1159.5C467.299 1159.5 403.5 1095.7 403.5 1017C403.5 938.299 467.299 874.5 546 874.5Z" fill="#20E97A" stroke="#0EBF5E" stroke-width="15"/>
</g>
<defs>
<clipPath id="clip0_115_137">
<rect width="1087" height="1419" fill="white"/>
</clipPath>
</defs>
</svg>
